<?xml version="1.0" standalone="no"?>
<svg xmlns:xlink="http://www.w3.org/1999/xlink" id="wave" style="transform:rotate(0deg); transition: 0.3s" viewBox="0 0 1440 100" version="1.1" xmlns="http://www.w3.org/2000/svg"><defs><linearGradient id="sw-gradient-0" x1="0" x2="0" y1="1" y2="0"><stop stop-color="rgba(62, 132.637, 243, 1)" offset="0%"/><stop stop-color="rgba(187.017, 171.375, 136.798, 1)" offset="100%"/></linearGradient></defs><path style="transform:translate(0, 0px); opacity:1" fill="url(#sw-gradient-0)" d="M0,10L14.1,20C28.2,30,56,50,85,51.7C112.9,53,141,37,169,36.7C197.6,37,226,53,254,55C282.4,57,311,43,339,31.7C367.1,20,395,10,424,11.7C451.8,13,480,27,508,36.7C536.5,47,565,53,593,60C621.2,67,649,73,678,71.7C705.9,70,734,60,762,58.3C790.6,57,819,63,847,66.7C875.3,70,904,70,932,65C960,60,988,50,1016,41.7C1044.7,33,1073,27,1101,33.3C1129.4,40,1158,60,1186,61.7C1214.1,63,1242,47,1271,41.7C1298.8,37,1327,43,1355,50C1383.5,57,1412,63,1440,61.7C1468.2,60,1496,50,1525,53.3C1552.9,57,1581,73,1609,68.3C1637.6,63,1666,37,1694,31.7C1722.4,27,1751,43,1779,48.3C1807.1,53,1835,47,1864,38.3C1891.8,30,1920,20,1948,28.3C1976.5,37,2005,63,2019,76.7L2032.9,90L2032.9,100L2018.8,100C2004.7,100,1976,100,1948,100C1920,100,1892,100,1864,100C1835.3,100,1807,100,1779,100C1750.6,100,1722,100,1694,100C1665.9,100,1638,100,1609,100C1581.2,100,1553,100,1525,100C1496.5,100,1468,100,1440,100C1411.8,100,1384,100,1355,100C1327.1,100,1299,100,1271,100C1242.4,100,1214,100,1186,100C1157.6,100,1129,100,1101,100C1072.9,100,1045,100,1016,100C988.2,100,960,100,932,100C903.5,100,875,100,847,100C818.8,100,791,100,762,100C734.1,100,706,100,678,100C649.4,100,621,100,593,100C564.7,100,536,100,508,100C480,100,452,100,424,100C395.3,100,367,100,339,100C310.6,100,282,100,254,100C225.9,100,198,100,169,100C141.2,100,113,100,85,100C56.5,100,28,100,14,100L0,100Z"/><defs><linearGradient id="sw-gradient-1" x1="0" x2="0" y1="1" y2="0"><stop stop-color="rgba(189.293, 152.438, 140.601, 1)" offset="0%"/><stop stop-color="rgba(65.597, 108.428, 198.401, 1)" offset="100%"/></linearGradient></defs><path style="transform:translate(0, 50px); opacity:0.9" fill="url(#sw-gradient-1)" d="M0,0L14.1,11.7C28.2,23,56,47,85,61.7C112.9,77,141,83,169,75C197.6,67,226,43,254,41.7C282.4,40,311,60,339,65C367.1,70,395,60,424,46.7C451.8,33,480,17,508,10C536.5,3,565,7,593,8.3C621.2,10,649,10,678,11.7C705.9,13,734,17,762,28.3C790.6,40,819,60,847,66.7C875.3,73,904,67,932,68.3C960,70,988,80,1016,75C1044.7,70,1073,50,1101,50C1129.4,50,1158,70,1186,73.3C1214.1,77,1242,63,1271,48.3C1298.8,33,1327,17,1355,13.3C1383.5,10,1412,20,1440,23.3C1468.2,27,1496,23,1525,26.7C1552.9,30,1581,40,1609,43.3C1637.6,47,1666,43,1694,36.7C1722.4,30,1751,20,1779,23.3C1807.1,27,1835,43,1864,51.7C1891.8,60,1920,60,1948,51.7C1976.5,43,2005,27,2019,18.3L2032.9,10L2032.9,100L2018.8,100C2004.7,100,1976,100,1948,100C1920,100,1892,100,1864,100C1835.3,100,1807,100,1779,100C1750.6,100,1722,100,1694,100C1665.9,100,1638,100,1609,100C1581.2,100,1553,100,1525,100C1496.5,100,1468,100,1440,100C1411.8,100,1384,100,1355,100C1327.1,100,1299,100,1271,100C1242.4,100,1214,100,1186,100C1157.6,100,1129,100,1101,100C1072.9,100,1045,100,1016,100C988.2,100,960,100,932,100C903.5,100,875,100,847,100C818.8,100,791,100,762,100C734.1,100,706,100,678,100C649.4,100,621,100,593,100C564.7,100,536,100,508,100C480,100,452,100,424,100C395.3,100,367,100,339,100C310.6,100,282,100,254,100C225.9,100,198,100,169,100C141.2,100,113,100,85,100C56.5,100,28,100,14,100L0,100Z"/></svg>